# xmcd CD database file
#
# Track frame offsets:
#	150
#	12999
#	38064
#	51618
#	66710
#	85280
#	99212
#	118121
#	130921
#	154448
#	174665
#	200639
#	223851
#	230156
#
# Disc length: 3349 seconds
#
# Revision: 2
# Processed by: cddbd v1.4PL0 Copyright (c) Steve Scherf et al.
# Submitted via: CDex 1.50Beta7
#
DISCID=d90d130e
DTITLE=Anne Clark - R.S.V.P. - Live At The Music Centrum Utrecht Holland
DYEAR=1988
DGENRE=New Age
TTITLE0=Up
TTITLE1=Homecomming
TTITLE2=Red Sands
TTITLE3=The Power Game
TTITLE4=Cane Hill
TTITLE5=Leaving
TTITLE6=Heaven
TTITLE7=The Last Emotion
TTITLE8=Killing Time
TTITLE9=Wallies
TTITLE10=Our Darkness
TTITLE11=Now
TTITLE12=This Be The Verse
TTITLE13=Sleeper In Metropolis
EXTD=YEAR: 1988
EXTT0=
EXTT1=
EXTT2=
EXTT3=
EXTT4=
EXTT5=
EXTT6=
EXTT7=
EXTT8=
EXTT9=
EXTT10=
EXTT11=
EXTT12=
EXTT13=
PLAYORDER=
